<svg version="1.1" id="Layer_1" xmlns="http://www.w3.org/2000/svg" xmlns:xlink="http://www.w3.org/1999/xlink" x="0px" y="0px" viewBox="0 0 400 500" style="enable-background:new 0 0 400 500;" xml:space="preserve">
 <style type="text/css">
  .st0{fill:#05CE78;}
 </style>
 <g>
  <path class="st0" d="M281.3,246.1l26.3-26.1c27.2-27,27.2-71.1,0-98.1c-27.2-27-71.6-27-98.8,0l-9.6,9.5
		c-12.7-18.1-33.6-29.9-57.4-29.9c-38.5,0-69.8,31.1-69.8,69.3v150.3c0,38.3,31.3,69.3,69.8,69.3c23.9,0,44.7-11.8,57.4-29.9
		l9.6,9.5c27.2,27,71.6,27,98.8,0c27.2-27,27.2-71.1,0-98.1L281.3,246.1L281.3,246.1z">
  </path>
 </g>
</svg>